/* XPM */
static char * focused_xpm[] = {
"1 21 4 1",
" 	c None",
".	c #2A2627",
"+	c #2A2727",
"@	c #80F7AE",
".",
".",
".",
".",
".",
".",
".",
".",
".",
".",
".",
".",
".",
".",
".",
".",
".",
".",
"+",
"+",
"@"};
