/* XPM */
static char * stick_pressed_xpm[] = {
"25 25 5 1",
" 	c None",
".	c #262729",
"+	c #252628",
"@	c #27CE51",
"#	c #25BF52",
".........................",
".........................",
".........................",
".........................",
".....+++++++++++++++.....",
".....+++++++++++++++.....",
".....+++++++++++++++.....",
".....+++++++++++++++.....",
".....+++++++++++++++.....",
".....+++++++++++++++.....",
".....+++++++@+++++++.....",
".....++++++@#@++++++.....",
".....+++++@###@+++++.....",
".....++++++##@++++++.....",
".....+++++++@+++++++.....",
".....+++++++++++++++.....",
".....+++++++++++++++.....",
".....+++++++++++++++.....",
".....+++++++++++++++.....",
".........................",
".........................",
".........................",
".........................",
".........................",
"........................."};
