/* XPM */
static char * closepr_xpm[] = {
"16 16 6 1",
" 	c #1E1E1E",
".	c #381A1B",
"+	c #970D11",
"@	c #E30309",
"#	c #5F1517",
"$	c #F60007",
"                ",
"                ",
"                ",
"     .+@@+.     ",
"    #$$$$$$#    ",
"   .$ $$$$ $.   ",
"   +$$ $$ $$+   ",
"   @$$$  $$$@   ",
"   @$$$  $$$@   ",
"   +$$ $$ $$+   ",
"   .$ $$$$ $.   ",
"    #$$$$$$#    ",
"     .+@@+.     ",
"                ",
"                ",
"                "};
