/* XPM */
static char * hibullet_xpm[] = {
"12 16 2 1",
" 	c #8CBC65",
".	c #1E1E1E",
"            ",
"            ",
"            ",
"            ",
"            ",
"      .     ",
"       .    ",
"        .   ",
"        .   ",
"       .    ",
"      .     ",
"            ",
"            ",
"            ",
"            ",
"            "};
