/* XPM */
static char * menufcs_xpm[] = {
"16 16 3 1",
" 	c None",
".	c #1E1E1E",
"+	c #F67400",
"................",
"................",
"................",
"................",
"................",
"................",
"......+..+......",
".......++.......",
"................",
"......+..+......",
".......++.......",
"................",
"................",
"................",
"................",
"................"};
