/* XPM */
static char * minpr_xpm[] = {
"16 16 6 1",
" 	c #1E1E1E",
".	c #2B3127",
"+	c #5C7746",
"@	c #83AE5F",
"#	c #3F4E33",
"$	c #8CBC65",
"                ",
"                ",
"                ",
"     .+@@+.     ",
"    #$$$$$$#    ",
"   .$$$$$$$$.   ",
"   + $$$$$$ +   ",
"   @$ $$$$ $@   ",
"   @$$ $$ $$@   ",
"   +$$$  $$$+   ",
"   .$$$$$$$$.   ",
"    #$$$$$$#    ",
"     .+@@+.     ",
"                ",
"                ",
"                "};
