/* XPM */
static char * shadepr_xpm[] = {
"16 16 6 1",
" 	c #1E1E1E",
".	c #38281A",
"+	c #974E0D",
"@	c #E36D03",
"#	c #5F3815",
"$	c #F67400",
"                ",
"                ",
"                ",
"     .+@@+.     ",
"    #$$$$$$#    ",
"   .$$$$$$$$.   ",
"   +$$$  $$$+   ",
"   @$$ $$ $$@   ",
"   @$ $$$$ $@   ",
"   +$$$$$$$$+   ",
"   .$$$$$$$$.   ",
"    #$$$$$$#    ",
"     .+@@+.     ",
"                ",
"                ",
"                "};
