/* XPM */
static char * stuckfcs_xpm[] = {
"16 16 7 1",
" 	c #2D2D2D",
".	c #55383F",
"+	c #A55065",
"@	c #DE607F",
"#	c #302E2E",
"$	c #A44F64",
"%	c #ED6486",
"                ",
"                ",
"     .+@@+.     ",
"   #$%%%%%%$#   ",
"   $%%%%%%%%$   ",
"  .%%%%%%%%%%.  ",
"  +%%%%%%%%%%+  ",
"  @%%%%%%%%%%@  ",
"  @%%%%%%%%%%@  ",
"  +%%%%%%%%%%+  ",
"  .%%%%%%%%%%.  ",
"   $%%%%%%%%$   ",
"   #$%%%%%%$#   ",
"     .+@@+.     ",
"                ",
"                "};
