/* XPM */
static char * menuufcs_xpm[] = {
"16 16 2 1",
" 	c #2D2D2D",
".	c #888888",
"                ",
"                ",
"                ",
"                ",
"                ",
"    ........    ",
"    ........    ",
"                ",
"                ",
"    ........    ",
"    ........    ",
"                ",
"                ",
"                ",
"                ",
"                "};
