/* XPM */
static char * hibullet_xpm[] = {
"12 16 3 1",
" 	c None",
".	c #64A8ED",
"+	c #F9F9F9",
"............",
"............",
"............",
"............",
"......+.....",
".......+....",
"........+...",
".........+..",
".........+..",
"........+...",
".......+....",
"......+.....",
"............",
"............",
"............",
"............"};
