/* XPM */
static char * closepr_xpm[] = {
"16 16 8 1",
" 	c #2D2D2D",
".	c #2F2E2E",
"+	c #643D3D",
"@	c #AE5252",
"#	c #E16161",
"$	c #4A3535",
"%	c #DF6060",
"&	c #ED6464",
"                ",
"    .+@##@+.    ",
"   $%&&&&&&%$   ",
"  $&&&&&&&&&&$  ",
" .%&&&&&&&&&&%. ",
" +&&&&&&&&&&&&+ ",
" @&&&&&&&&&&&&@ ",
" #&&&&&&&&&&&&# ",
" #&&&&&&&&&&&&# ",
" @&&&&&&&&&&&&@ ",
" +&&&&&&&&&&&&+ ",
" .%&&&&&&&&&&%. ",
"  $&&&&&&&&&&$  ",
"   $%&&&&&&%$   ",
"    .+@##@+.    ",
"                "};
