/* XPM */
static char * hibullet_xpm[] = {
"12 16 5 1",
" 	c None",
".	c #64A8ED",
"+	c #96C3F1",
"@	c #E3EDF7",
"#	c #F9F9F9",
"............",
"............",
"............",
"............",
"............",
"....+@@+....",
"...+####+...",
"...@####@...",
"...@####@...",
"...+####+...",
"....+@@+....",
"............",
"............",
"............",
"............",
"............"};
